<svg width="40" height="44" viewBox="0 0 40 44" fill="none" xmlns="http://www.w3.org/2000/svg">
<path d="M22.569 42.2498C17.3153 38.9735 13.8163 33.1424 13.8163 26.4928C13.8163 23.0763 16.5854 20.3071 19.9999 20.3071C23.4144 20.3071 26.1835 23.0763 26.1835 26.4928C26.1835 29.9094 28.9527 32.6785 32.3672 32.6785C35.7817 32.6785 38.5508 29.9094 38.5508 26.4928C38.5508 16.2431 30.2455 7.93574 20.002 7.93574C9.75845 7.93574 1.45312 16.2431 1.45312 26.4928C1.45312 28.7774 1.7088 31.0022 2.17891 33.1466M12.1012 40.6725C9.28666 36.656 7.63095 31.7693 7.63095 26.4929C7.63095 19.6597 13.1671 14.1215 19.9962 14.1215C26.8252 14.1215 32.3614 19.6597 32.3614 26.4929M33.0317 38.8314C32.809 38.8437 32.5904 38.8644 32.3657 38.8644C25.5367 38.8644 20.0005 33.3261 20.0005 26.493M37.2631 9.57284C33.0465 4.78305 26.8815 1.75 19.9988 1.75C13.1162 1.75 6.95115 4.78305 2.73457 9.57284" stroke="#43D07C" stroke-width="2" stroke-linecap="round" stroke-linejoin="round"/>
</svg>
