<svg width="40" height="40" viewBox="0 0 40 40" fill="none" xmlns="http://www.w3.org/2000/svg">
<mask id="mask0_2339_6923" style="mask-type:alpha" maskUnits="userSpaceOnUse" x="0" y="0" width="40" height="40">
<rect width="40" height="40" fill="#D9D9D9"/>
</mask>
<g mask="url(#mask0_2339_6923)">
<path d="M13.9987 28.332L19.9987 22.332L25.9987 28.332L28.332 25.9987L22.332 19.9987L28.332 13.9987L25.9987 11.6654L19.9987 17.6654L13.9987 11.6654L11.6654 13.9987L17.6654 19.9987L11.6654 25.9987L13.9987 28.332ZM19.9987 36.6654C17.6931 36.6654 15.5265 36.2279 13.4987 35.3529C11.4709 34.4779 9.70703 33.2904 8.20703 31.7904C6.70703 30.2904 5.51953 28.5265 4.64453 26.4987C3.76953 24.4709 3.33203 22.3043 3.33203 19.9987C3.33203 17.6931 3.76953 15.5265 4.64453 13.4987C5.51953 11.4709 6.70703 9.70703 8.20703 8.20703C9.70703 6.70703 11.4709 5.51953 13.4987 4.64453C15.5265 3.76953 17.6931 3.33203 19.9987 3.33203C22.3043 3.33203 24.4709 3.76953 26.4987 4.64453C28.5265 5.51953 30.2904 6.70703 31.7904 8.20703C33.2904 9.70703 34.4779 11.4709 35.3529 13.4987C36.2279 15.5265 36.6654 17.6931 36.6654 19.9987C36.6654 22.3043 36.2279 24.4709 35.3529 26.4987C34.4779 28.5265 33.2904 30.2904 31.7904 31.7904C30.2904 33.2904 28.5265 34.4779 26.4987 35.3529C24.4709 36.2279 22.3043 36.6654 19.9987 36.6654Z" fill="#DB4343"/>
</g>
</svg>
