<svg width="34" height="34" viewBox="0 0 34 34" fill="none" xmlns="http://www.w3.org/2000/svg">
<path d="M14.6654 24.6654L26.4154 12.9154L24.082 10.582L14.6654 19.9987L9.91536 15.2487L7.58203 17.582L14.6654 24.6654ZM16.9987 33.6654C14.6931 33.6654 12.5265 33.2279 10.4987 32.3529C8.47092 31.4779 6.70703 30.2904 5.20703 28.7904C3.70703 27.2904 2.51953 25.5265 1.64453 23.4987C0.769531 21.4709 0.332031 19.3043 0.332031 16.9987C0.332031 14.6931 0.769531 12.5265 1.64453 10.4987C2.51953 8.47092 3.70703 6.70703 5.20703 5.20703C6.70703 3.70703 8.47092 2.51953 10.4987 1.64453C12.5265 0.769531 14.6931 0.332031 16.9987 0.332031C19.3043 0.332031 21.4709 0.769531 23.4987 1.64453C25.5265 2.51953 27.2904 3.70703 28.7904 5.20703C30.2904 6.70703 31.4779 8.47092 32.3529 10.4987C33.2279 12.5265 33.6654 14.6931 33.6654 16.9987C33.6654 19.3043 33.2279 21.4709 32.3529 23.4987C31.4779 25.5265 30.2904 27.2904 28.7904 28.7904C27.2904 30.2904 25.5265 31.4779 23.4987 32.3529C21.4709 33.2279 19.3043 33.6654 16.9987 33.6654Z" fill="#26BA62"/>
</svg>
