<svg width="24" height="24" viewBox="0 0 24 24" fill="none" xmlns="http://www.w3.org/2000/svg">
<mask id="mask0_2339_7880" style="mask-type:alpha" maskUnits="userSpaceOnUse" x="0" y="0" width="24" height="24">
<rect width="24" height="24" fill="#D9D9D9"/>
</mask>
<g mask="url(#mask0_2339_7880)">
<path d="M11.75 17.25H13.25V11.5H11.75V17.25ZM12.5 9.7885C12.7288 9.7885 12.9207 9.71108 13.0755 9.55625C13.2303 9.40142 13.3077 9.20958 13.3077 8.98075C13.3077 8.75192 13.2303 8.56008 13.0755 8.40525C12.9207 8.25058 12.7288 8.17325 12.5 8.17325C12.2712 8.17325 12.0793 8.25058 11.9245 8.40525C11.7697 8.56008 11.6923 8.75192 11.6923 8.98075C11.6923 9.20958 11.7697 9.40142 11.9245 9.55625C12.0793 9.71108 12.2712 9.7885 12.5 9.7885ZM12.5017 22C11.1877 22 9.95267 21.7507 8.7965 21.252C7.64033 20.7533 6.63467 20.0766 5.7795 19.2218C4.92433 18.3669 4.24725 17.3617 3.74825 16.206C3.24942 15.0503 3 13.8156 3 12.5017C3 11.1877 3.24933 9.95267 3.748 8.7965C4.24667 7.64033 4.92342 6.63467 5.77825 5.7795C6.63308 4.92433 7.63833 4.24725 8.794 3.74825C9.94967 3.24942 11.1844 3 12.4983 3C13.8123 3 15.0473 3.24933 16.2035 3.748C17.3597 4.24667 18.3653 4.92342 19.2205 5.77825C20.0757 6.63308 20.7528 7.63833 21.2518 8.794C21.7506 9.94967 22 11.1844 22 12.4983C22 13.8123 21.7507 15.0473 21.252 16.2035C20.7533 17.3597 20.0766 18.3653 19.2218 19.2205C18.3669 20.0757 17.3617 20.7528 16.206 21.2518C15.0503 21.7506 13.8156 22 12.5017 22ZM12.5 20.5C14.7333 20.5 16.625 19.725 18.175 18.175C19.725 16.625 20.5 14.7333 20.5 12.5C20.5 10.2667 19.725 8.375 18.175 6.825C16.625 5.275 14.7333 4.5 12.5 4.5C10.2667 4.5 8.375 5.275 6.825 6.825C5.275 8.375 4.5 10.2667 4.5 12.5C4.5 14.7333 5.275 16.625 6.825 18.175C8.375 19.725 10.2667 20.5 12.5 20.5Z" fill="black"/>
</g>
</svg>
