<svg width="20" height="20" viewBox="0 0 20 20" fill="none" xmlns="http://www.w3.org/2000/svg">
<path d="M15.8333 10C15.8333 13.2217 13.2217 15.8333 10 15.8333M15.8333 10C15.8333 6.77834 13.2217 4.16667 10 4.16667M15.8333 10H17.5M10 15.8333C6.77834 15.8333 4.16667 13.2217 4.16667 10M10 15.8333V17.5M4.16667 10C4.16667 6.77834 6.77834 4.16667 10 4.16667M4.16667 10H2.5M10 4.16667V2.5M12.5 10C12.5 11.3807 11.3807 12.5 10 12.5C8.61929 12.5 7.5 11.3807 7.5 10C7.5 8.61929 8.61929 7.5 10 7.5C11.3807 7.5 12.5 8.61929 12.5 10Z" stroke="#0EA84C" stroke-width="1.4" stroke-linecap="round" stroke-linejoin="round"/>
</svg>
