<svg width="24" height="24" viewBox="0 0 24 24" fill="none" xmlns="http://www.w3.org/2000/svg">
<mask id="mask0_21961_2991" style="mask-type:alpha" maskUnits="userSpaceOnUse" x="0" y="0" width="24" height="24">
<rect width="24" height="24" fill="#D9D9D9"/>
</mask>
<g mask="url(#mask0_21961_2991)">
<path d="M18.125 14.7492V11.7492H15.125V10.2492H18.125V7.24916H19.625V10.2492H22.625V11.7492H19.625V14.7492H18.125ZM9 12.6914C8.0375 12.6914 7.21358 12.3487 6.52825 11.6634C5.84275 10.9779 5.5 10.1539 5.5 9.19141C5.5 8.22891 5.84275 7.40499 6.52825 6.71966C7.21358 6.03416 8.0375 5.69141 9 5.69141C9.9625 5.69141 10.7864 6.03416 11.4718 6.71966C12.1573 7.40499 12.5 8.22891 12.5 9.19141C12.5 10.1539 12.1573 10.9779 11.4718 11.6634C10.7864 12.3487 9.9625 12.6914 9 12.6914ZM1.5 20.3069V18.0837C1.5 17.594 1.633 17.1405 1.899 16.7232C2.165 16.3058 2.5205 15.985 2.9655 15.7607C3.95383 15.2762 4.95092 14.9127 5.95675 14.6704C6.96258 14.4281 7.977 14.3069 9 14.3069C10.023 14.3069 11.0374 14.4281 12.0433 14.6704C13.0491 14.9127 14.0462 15.2762 15.0345 15.7607C15.4795 15.985 15.835 16.3058 16.101 16.7232C16.367 17.1405 16.5 17.594 16.5 18.0837V20.3069H1.5ZM3 18.8069H15V18.0837C15 17.8812 14.9413 17.6937 14.824 17.5212C14.7067 17.3488 14.5474 17.2082 14.3462 17.0992C13.4846 16.6748 12.6061 16.3533 11.7107 16.1347C10.8152 15.9162 9.91167 15.8069 9 15.8069C8.08833 15.8069 7.18475 15.9162 6.28925 16.1347C5.39392 16.3533 4.51542 16.6748 3.65375 17.0992C3.45258 17.2082 3.29333 17.3488 3.176 17.5212C3.05867 17.6937 3 17.8812 3 18.0837V18.8069ZM9 11.1914C9.55 11.1914 10.0208 10.9956 10.4125 10.6039C10.8042 10.2122 11 9.74141 11 9.19141C11 8.64141 10.8042 8.17057 10.4125 7.77891C10.0208 7.38724 9.55 7.19141 9 7.19141C8.45 7.19141 7.97917 7.38724 7.5875 7.77891C7.19583 8.17057 7 8.64141 7 9.19141C7 9.74141 7.19583 10.2122 7.5875 10.6039C7.97917 10.9956 8.45 11.1914 9 11.1914Z" fill="white"/>
</g>
</svg>
