<svg width="30" height="29" viewBox="0 0 30 29" fill="none" xmlns="http://www.w3.org/2000/svg">
<g filter="url(#filter0_d_21703_3861)">
<mask id="mask0_21703_3861" style="mask-type:alpha" maskUnits="userSpaceOnUse" x="3" y="0" width="24" height="24">
<rect x="3" width="24" height="24" fill="#D9D9D9"/>
</mask>
<g mask="url(#mask0_21703_3861)">
<path d="M21.125 14.7492V11.7492H18.125V10.2492H21.125V7.24916H22.625V10.2492H25.625V11.7492H22.625V14.7492H21.125ZM12 12.6914C11.0375 12.6914 10.2136 12.3487 9.52825 11.6634C8.84275 10.9779 8.5 10.1539 8.5 9.19141C8.5 8.22891 8.84275 7.40499 9.52825 6.71966C10.2136 6.03416 11.0375 5.69141 12 5.69141C12.9625 5.69141 13.7864 6.03416 14.4718 6.71966C15.1573 7.40499 15.5 8.22891 15.5 9.19141C15.5 10.1539 15.1573 10.9779 14.4718 11.6634C13.7864 12.3487 12.9625 12.6914 12 12.6914ZM4.5 20.3069V18.0837C4.5 17.594 4.633 17.1405 4.899 16.7232C5.165 16.3058 5.5205 15.985 5.9655 15.7607C6.95383 15.2762 7.95092 14.9127 8.95675 14.6704C9.96258 14.4281 10.977 14.3069 12 14.3069C13.023 14.3069 14.0374 14.4281 15.0433 14.6704C16.0491 14.9127 17.0462 15.2762 18.0345 15.7607C18.4795 15.985 18.835 16.3058 19.101 16.7232C19.367 17.1405 19.5 17.594 19.5 18.0837V20.3069H4.5ZM6 18.8069H18V18.0837C18 17.8812 17.9413 17.6937 17.824 17.5212C17.7067 17.3488 17.5474 17.2082 17.3462 17.0992C16.4846 16.6748 15.6061 16.3533 14.7107 16.1347C13.8152 15.9162 12.9117 15.8069 12 15.8069C11.0883 15.8069 10.1848 15.9162 9.28925 16.1347C8.39392 16.3533 7.51542 16.6748 6.65375 17.0992C6.45258 17.2082 6.29333 17.3488 6.176 17.5212C6.05867 17.6937 6 17.8812 6 18.0837V18.8069ZM12 11.1914C12.55 11.1914 13.0208 10.9956 13.4125 10.6039C13.8042 10.2122 14 9.74141 14 9.19141C14 8.64141 13.8042 8.17057 13.4125 7.77891C13.0208 7.38724 12.55 7.19141 12 7.19141C11.45 7.19141 10.9792 7.38724 10.5875 7.77891C10.1958 8.17057 10 8.64141 10 9.19141C10 9.74141 10.1958 10.2122 10.5875 10.6039C10.9792 10.9956 11.45 11.1914 12 11.1914Z" fill="white"/>
</g>
</g>
<defs>
<filter id="filter0_d_21703_3861" x="0.5" y="5.69141" width="29.125" height="22.6157" filterUnits="userSpaceOnUse" color-interpolation-filters="sRGB">
<feFlood flood-opacity="0" result="BackgroundImageFix"/>
<feColorMatrix in="SourceAlpha" type="matrix" values="0 0 0 0 0 0 0 0 0 0 0 0 0 0 0 0 0 0 127 0" result="hardAlpha"/>
<feOffset dy="4"/>
<feGaussianBlur stdDeviation="2"/>
<feComposite in2="hardAlpha" operator="out"/>
<feColorMatrix type="matrix" values="0 0 0 0 0 0 0 0 0 0 0 0 0 0 0 0 0 0 0.25 0"/>
<feBlend mode="normal" in2="BackgroundImageFix" result="effect1_dropShadow_21703_3861"/>
<feBlend mode="normal" in="SourceGraphic" in2="effect1_dropShadow_21703_3861" result="shape"/>
</filter>
</defs>
</svg>
