<svg width="27" height="27" viewBox="0 0 27 27" fill="none" xmlns="http://www.w3.org/2000/svg">
<mask id="mask0_4343_19767" style="mask-type:alpha" maskUnits="userSpaceOnUse" x="0" y="0" width="27" height="27">
<rect width="26.8099" height="26.8099" fill="#656B76"/>
</mask>
<g mask="url(#mask0_4343_19767)">
<path d="M7.26118 21.784C5.71738 21.784 4.40053 21.2485 3.31063 20.1774C2.22073 19.1063 1.67578 17.7973 1.67578 16.2503C1.67578 14.8625 2.12224 13.6419 3.01516 12.5885C3.90808 11.5351 5.01548 10.911 6.33736 10.7163C6.69538 9.04643 7.53505 7.6809 8.85637 6.61967C10.1775 5.55845 11.6938 5.02783 13.4051 5.02783C15.4278 5.02783 17.1436 5.73234 18.5526 7.14135C19.9616 8.55036 20.6661 10.2662 20.6661 12.2889V12.8474H21.0099C22.1871 12.939 23.1689 13.4124 23.9551 14.2675C24.7413 15.1224 25.1345 16.1385 25.1345 17.3157C25.1345 18.5616 24.7048 19.6178 23.8456 20.4843C22.9862 21.3508 21.9336 21.784 20.6876 21.784H14.5867C14.0224 21.784 13.5448 21.5885 13.1538 21.1976C12.7628 20.8066 12.5673 20.3289 12.5673 19.7646V13.6464L10.5007 15.6786L9.32359 14.5124L13.4051 10.4306L17.4867 14.5124L16.3095 15.6786L14.2429 13.6464V19.7646C14.2429 19.8506 14.2788 19.9294 14.3504 20.0009C14.4219 20.0726 14.5007 20.1084 14.5867 20.1084H20.6661C21.4481 20.1084 22.109 19.8385 22.649 19.2985C23.1889 18.7586 23.4588 18.0977 23.4588 17.3157C23.4588 16.5338 23.1889 15.8728 22.649 15.3329C22.109 14.793 21.4481 14.523 20.6661 14.523H18.9905V12.2889C18.9905 10.7436 18.4459 9.42633 17.3568 8.33718C16.2676 7.24803 14.9504 6.70345 13.4051 6.70345C11.8598 6.70345 10.5426 7.24803 9.45345 8.33718C8.3643 9.42633 7.81972 10.7436 7.81972 12.2889H7.23968C6.18124 12.2889 5.26859 12.6705 4.50171 13.4339C3.73484 14.1972 3.3514 15.1188 3.3514 16.1986C3.3514 17.2785 3.73307 18.2001 4.49641 18.9634C5.25975 19.7267 6.18134 20.1084 7.26118 20.1084H10.0539V21.784H7.26118Z" fill="#656B76"/>
</g>
</svg>
